<mxfile host="65bd71144e">
    <diagram id="fIKKMrPVB5h12-MUDdVy" name="Page-1">
        <mxGraphModel dx="832" dy="513" grid="1" gridSize="10" guides="1" tooltips="1" connect="1" arrows="1" fold="1" page="1" pageScale="1" pageWidth="850" pageHeight="1100" math="0" shadow="0">
            <root>
                <mxCell id="0"/>
                <mxCell id="1" parent="0"/>
                <mxCell id="31" style="edgeStyle=none;html=1;exitX=0.5;exitY=0.5;exitDx=0;exitDy=0;exitPerimeter=0;fontColor=#FCFCFC;endArrow=none;endFill=0;" parent="1" source="2" target="30" edge="1">
                    <mxGeometry relative="1" as="geometry"/>
                </mxCell>
                <mxCell id="2" value="khách hàng" style="shape=umlActor;verticalLabelPosition=bottom;verticalAlign=top;html=1;outlineConnect=0;" parent="1" vertex="1">
                    <mxGeometry x="40" y="260" width="30" height="60" as="geometry"/>
                </mxCell>
                <mxCell id="6" value="Chọn sản phảm" style="ellipse;whiteSpace=wrap;html=1;" parent="1" vertex="1">
                    <mxGeometry x="410" y="260" width="120" height="80" as="geometry"/>
                </mxCell>
                <mxCell id="7" value="Nạp sản phầm" style="ellipse;whiteSpace=wrap;html=1;" parent="1" vertex="1">
                    <mxGeometry x="200" y="540" width="120" height="80" as="geometry"/>
                </mxCell>
                <mxCell id="8" value="Cài đặt" style="ellipse;whiteSpace=wrap;html=1;" parent="1" vertex="1">
                    <mxGeometry x="200" y="640" width="120" height="80" as="geometry"/>
                </mxCell>
                <mxCell id="55" style="edgeStyle=none;html=1;exitX=1;exitY=0.5;exitDx=0;exitDy=0;dashed=1;dashPattern=8 8;fontColor=#FCFCFC;endArrow=open;endFill=0;" parent="1" source="9" target="52" edge="1">
                    <mxGeometry relative="1" as="geometry"/>
                </mxCell>
                <mxCell id="58" value="&amp;lt;&amp;lt; Extend &amp;gt;&amp;gt;&amp;nbsp;" style="edgeLabel;html=1;align=center;verticalAlign=middle;resizable=0;points=[];fontColor=#FCFCFC;" parent="55" vertex="1" connectable="0">
                    <mxGeometry x="-0.3643" y="2" relative="1" as="geometry">
                        <mxPoint x="21" y="2" as="offset"/>
                    </mxGeometry>
                </mxCell>
                <mxCell id="56" style="edgeStyle=none;html=1;exitX=1;exitY=0.5;exitDx=0;exitDy=0;dashed=1;dashPattern=8 8;fontColor=#FCFCFC;endArrow=open;endFill=0;" parent="1" source="9" target="53" edge="1">
                    <mxGeometry relative="1" as="geometry"/>
                </mxCell>
                <mxCell id="59" value="&amp;lt;&amp;lt; Extend &amp;gt;&amp;gt;" style="edgeLabel;html=1;align=center;verticalAlign=middle;resizable=0;points=[];fontColor=#FCFCFC;" parent="56" vertex="1" connectable="0">
                    <mxGeometry x="-0.4142" relative="1" as="geometry">
                        <mxPoint x="12" y="18" as="offset"/>
                    </mxGeometry>
                </mxCell>
                <mxCell id="9" value="Giám sát" style="ellipse;whiteSpace=wrap;html=1;" parent="1" vertex="1">
                    <mxGeometry x="190" y="840" width="120" height="80" as="geometry"/>
                </mxCell>
                <mxCell id="42" style="html=1;exitX=0.5;exitY=0.5;exitDx=0;exitDy=0;exitPerimeter=0;fontColor=#FCFCFC;endArrow=none;endFill=0;" parent="1" source="10" target="7" edge="1">
                    <mxGeometry relative="1" as="geometry"/>
                </mxCell>
                <mxCell id="43" style="html=1;exitX=0.5;exitY=0.5;exitDx=0;exitDy=0;exitPerimeter=0;fontColor=#FCFCFC;endArrow=none;endFill=0;" parent="1" source="11" target="8" edge="1">
                    <mxGeometry relative="1" as="geometry"/>
                </mxCell>
                <mxCell id="10" value="Nhân viên bảo trì" style="shape=umlActor;verticalLabelPosition=bottom;verticalAlign=top;html=1;outlineConnect=0;" parent="1" vertex="1">
                    <mxGeometry x="40" y="540" width="30" height="60" as="geometry"/>
                </mxCell>
                <mxCell id="54" style="edgeStyle=none;html=1;exitX=0.5;exitY=0.5;exitDx=0;exitDy=0;exitPerimeter=0;fontColor=#FCFCFC;endArrow=none;endFill=0;" parent="1" source="11" target="9" edge="1">
                    <mxGeometry relative="1" as="geometry"/>
                </mxCell>
                <mxCell id="11" value="Quản lý" style="shape=umlActor;verticalLabelPosition=bottom;verticalAlign=top;html=1;outlineConnect=0;" parent="1" vertex="1">
                    <mxGeometry x="40" y="650" width="30" height="60" as="geometry"/>
                </mxCell>
                <mxCell id="18" value="&amp;lt;&amp;lt; include &amp;gt;&amp;gt;" style="edgeStyle=none;html=1;exitX=1;exitY=0.5;exitDx=0;exitDy=0;endArrow=open;endFill=0;dashed=1;dashPattern=8 8;" parent="1" source="14" target="15" edge="1">
                    <mxGeometry relative="1" as="geometry"/>
                </mxCell>
                <mxCell id="14" value="Thanh toán" style="ellipse;whiteSpace=wrap;html=1;" parent="1" vertex="1">
                    <mxGeometry x="410" y="360" width="120" height="80" as="geometry"/>
                </mxCell>
                <mxCell id="15" value="Xác nhận thanh toán" style="ellipse;whiteSpace=wrap;html=1;" parent="1" vertex="1">
                    <mxGeometry x="670" y="360" width="120" height="80" as="geometry"/>
                </mxCell>
                <mxCell id="23" style="edgeStyle=none;html=1;exitX=1;exitY=0.5;exitDx=0;exitDy=0;endArrow=open;endFill=0;dashed=1;dashPattern=8 8;" parent="1" source="20" target="22" edge="1">
                    <mxGeometry relative="1" as="geometry"/>
                </mxCell>
                <mxCell id="27" value="&amp;lt;&amp;lt; extends &amp;gt;&amp;gt;" style="edgeLabel;html=1;align=center;verticalAlign=middle;resizable=0;points=[];" parent="23" vertex="1" connectable="0">
                    <mxGeometry x="-0.2522" y="-3" relative="1" as="geometry">
                        <mxPoint as="offset"/>
                    </mxGeometry>
                </mxCell>
                <mxCell id="20" value="Nhận sản phẩm" style="ellipse;whiteSpace=wrap;html=1;" parent="1" vertex="1">
                    <mxGeometry x="410" y="460" width="120" height="80" as="geometry"/>
                </mxCell>
                <mxCell id="22" value="Báo cáo hàng lỗi" style="ellipse;whiteSpace=wrap;html=1;" parent="1" vertex="1">
                    <mxGeometry x="670" y="460" width="120" height="80" as="geometry"/>
                </mxCell>
                <mxCell id="33" style="edgeStyle=orthogonalEdgeStyle;html=1;exitX=1;exitY=0.5;exitDx=0;exitDy=0;fontColor=#FCFCFC;endArrow=open;endFill=0;dashed=1;dashPattern=8 8;" parent="1" source="30" target="6" edge="1">
                    <mxGeometry relative="1" as="geometry"/>
                </mxCell>
                <mxCell id="39" value="&amp;lt;&amp;lt; include &amp;gt;&amp;gt;" style="edgeLabel;html=1;align=center;verticalAlign=middle;resizable=0;points=[];fontColor=#FCFCFC;" parent="33" vertex="1" connectable="0">
                    <mxGeometry x="-0.4" y="-3" relative="1" as="geometry">
                        <mxPoint x="9" y="-3" as="offset"/>
                    </mxGeometry>
                </mxCell>
                <mxCell id="34" style="edgeStyle=orthogonalEdgeStyle;html=1;exitX=1;exitY=0.5;exitDx=0;exitDy=0;fontColor=#FCFCFC;endArrow=open;endFill=0;dashed=1;dashPattern=8 8;" parent="1" source="30" target="14" edge="1">
                    <mxGeometry relative="1" as="geometry">
                        <Array as="points">
                            <mxPoint x="230" y="300"/>
                            <mxPoint x="230" y="400"/>
                        </Array>
                    </mxGeometry>
                </mxCell>
                <mxCell id="38" value="&amp;lt;&amp;lt;include&amp;gt;&amp;gt;" style="edgeLabel;html=1;align=center;verticalAlign=middle;resizable=0;points=[];fontColor=#FCFCFC;" parent="34" vertex="1" connectable="0">
                    <mxGeometry x="-0.317" y="1" relative="1" as="geometry">
                        <mxPoint x="69" y="11" as="offset"/>
                    </mxGeometry>
                </mxCell>
                <mxCell id="36" style="edgeStyle=orthogonalEdgeStyle;html=1;exitX=1;exitY=0.5;exitDx=0;exitDy=0;fontColor=#FCFCFC;endArrow=open;endFill=0;dashed=1;dashPattern=8 8;" parent="1" source="30" target="20" edge="1">
                    <mxGeometry relative="1" as="geometry">
                        <Array as="points">
                            <mxPoint x="230" y="300"/>
                            <mxPoint x="230" y="500"/>
                        </Array>
                    </mxGeometry>
                </mxCell>
                <mxCell id="37" value="&amp;lt;&amp;lt;include&amp;gt;&amp;gt;" style="edgeLabel;html=1;align=center;verticalAlign=middle;resizable=0;points=[];fontColor=#FCFCFC;" parent="36" vertex="1" connectable="0">
                    <mxGeometry x="-0.2105" y="-4" relative="1" as="geometry">
                        <mxPoint x="74" y="56" as="offset"/>
                    </mxGeometry>
                </mxCell>
                <mxCell id="30" value="Mua sản phẩm" style="ellipse;whiteSpace=wrap;html=1;fontColor=#FCFCFC;" parent="1" vertex="1">
                    <mxGeometry x="120" y="260" width="120" height="80" as="geometry"/>
                </mxCell>
                <mxCell id="48" style="edgeStyle=none;html=1;exitX=0;exitY=0.5;exitDx=0;exitDy=0;dashed=1;dashPattern=8 8;fontColor=#FCFCFC;endArrow=open;endFill=0;" parent="1" source="40" target="8" edge="1">
                    <mxGeometry relative="1" as="geometry"/>
                </mxCell>
                <mxCell id="50" value="&amp;lt;&amp;lt; extend &amp;gt;&amp;gt;" style="edgeLabel;html=1;align=center;verticalAlign=middle;resizable=0;points=[];fontColor=#FCFCFC;" parent="48" vertex="1" connectable="0">
                    <mxGeometry x="0.2686" relative="1" as="geometry">
                        <mxPoint x="19" y="-5" as="offset"/>
                    </mxGeometry>
                </mxCell>
                <mxCell id="40" value="Định nghĩa" style="ellipse;whiteSpace=wrap;html=1;fontColor=#FCFCFC;" parent="1" vertex="1">
                    <mxGeometry x="440" y="630" width="120" height="80" as="geometry"/>
                </mxCell>
                <mxCell id="49" style="edgeStyle=none;html=1;exitX=0;exitY=0.5;exitDx=0;exitDy=0;dashed=1;dashPattern=8 8;fontColor=#FCFCFC;endArrow=open;endFill=0;" parent="1" source="41" target="8" edge="1">
                    <mxGeometry relative="1" as="geometry"/>
                </mxCell>
                <mxCell id="51" value="&amp;lt;&amp;lt; extend &amp;gt;&amp;gt;" style="edgeLabel;html=1;align=center;verticalAlign=middle;resizable=0;points=[];fontColor=#FCFCFC;" parent="49" vertex="1" connectable="0">
                    <mxGeometry x="0.4268" y="1" relative="1" as="geometry">
                        <mxPoint x="27" as="offset"/>
                    </mxGeometry>
                </mxCell>
                <mxCell id="41" value="Cập nhật giá" style="ellipse;whiteSpace=wrap;html=1;fontColor=#FCFCFC;" parent="1" vertex="1">
                    <mxGeometry x="440" y="740" width="120" height="80" as="geometry"/>
                </mxCell>
                <mxCell id="52" value="Giám sất doanh số" style="ellipse;whiteSpace=wrap;html=1;fontColor=#FCFCFC;" parent="1" vertex="1">
                    <mxGeometry x="430" y="840" width="120" height="80" as="geometry"/>
                </mxCell>
                <mxCell id="53" value="Giám sát số sản phẩm đã bán" style="ellipse;whiteSpace=wrap;html=1;fontColor=#FCFCFC;" parent="1" vertex="1">
                    <mxGeometry x="425" y="940" width="120" height="80" as="geometry"/>
                </mxCell>
            </root>
        </mxGraphModel>
    </diagram>
</mxfile>